<?xml version="1.0" standalone="no"?>
<svg viewBox="0 0 200 200" xmlns="http://www.w3.org/2000/svg">
  <path fill="#F3F4F5" d="M26.3,-52.8C33.5,-41.3,38.6,-33.3,49.4,-25C60.2,-16.8,76.8,-8.4,79.4,1.5C81.9,11.3,70.4,22.7,59.1,30.1C47.8,37.4,36.7,40.8,26.8,43.5C17,46.3,8.5,48.3,-4.1,55.3C-16.6,62.3,-33.3,74.4,-45.6,73.1C-58,71.9,-66.1,57.4,-69,43C-71.9,28.6,-69.6,14.3,-65.2,2.5C-60.9,-9.3,-54.6,-18.6,-48.1,-26.8C-41.6,-34.9,-35,-42,-26.9,-53C-18.9,-64,-9.4,-79,0,-79C9.5,-79.1,19,-64.2,26.3,-52.8Z" transform="translate(100 100)" />
</svg>
